<svg  viewBox="0 0 512 512" xmlns="http://www.w3.org/2000/svg" xml:space="preserve" version="1.1">
 <defs>
  <linearGradient y2="0.37824" x2="0.5" y1="0.93762" x1="0.5" id="SVGID_1_">
   <stop stop-color="#AF5C37" offset="0"/>
   <stop stop-color="#843F29" offset="1"/>
  </linearGradient>
  <linearGradient y2="0.37471" x2="0.5" y1="0.92886" x1="0.5" id="SVGID_2_">
   <stop stop-color="#C1653D" offset="0"/>
   <stop stop-color="#9F4D32" offset="1"/>
  </linearGradient>
  <linearGradient y2="0.4027" x2="0.5" y1="0.95703" x1="0.5" id="SVGID_3_">
   <stop stop-color="#AF5C37" offset="0"/>
   <stop stop-color="#843F29" offset="1"/>
  </linearGradient>
  <linearGradient y2="0.41749" x2="0.5" y1="0.96669" x1="0.5" id="SVGID_4_">
   <stop stop-color="#C1653D" offset="0"/>
   <stop stop-color="#9F4D32" offset="1"/>
  </linearGradient>
  <linearGradient y2="0.38038" x2="0.5067" y1="0.93727" x1="0.5067" id="SVGID_5_">
   <stop stop-color="#AF5C37" offset="0"/>
   <stop stop-color="#843F29" offset="1"/>
  </linearGradient>
  <linearGradient y2="0.38038" x2="0.4992" y1="0.93727" x1="0.4992" id="SVGID_6_">
   <stop stop-color="#C1653D" offset="0"/>
   <stop stop-color="#9F4D32" offset="1"/>
  </linearGradient>
  <linearGradient y2="0.41631" x2="0.49184" y1="0.96102" x1="0.49184" id="SVGID_7_">
   <stop stop-color="#AF5C37" offset="0"/>
   <stop stop-color="#843F29" offset="1"/>
  </linearGradient>
  <linearGradient y2="0.40304" x2="0.49955" y1="0.96013" x1="0.49955" id="SVGID_8_">
   <stop stop-color="#C1653D" offset="0"/>
   <stop stop-color="#9F4D32" offset="1"/>
  </linearGradient>
  <linearGradient y2="0.37917" x2="0.50201" y1="0.93719" x1="0.50201" id="SVGID_9_">
   <stop stop-color="#AF5C37" offset="0"/>
   <stop stop-color="#843F29" offset="1"/>
  </linearGradient>
  <linearGradient y2="0.38443" x2="0.49909" y1="0.93772" x1="0.49909" id="SVGID_10_">
   <stop stop-color="#C1653D" offset="0"/>
   <stop stop-color="#9F4D32" offset="1"/>
  </linearGradient>
  <linearGradient y2="0.40333" x2="0.49885" y1="0.95957" x1="0.49885" id="SVGID_11_">
   <stop stop-color="#AF5C37" offset="0"/>
   <stop stop-color="#843F29" offset="1"/>
  </linearGradient>
  <linearGradient y2="0.41828" x2="0.49522" y1="0.97176" x1="0.49522" id="SVGID_12_">
   <stop stop-color="#C1653D" offset="0"/>
   <stop stop-color="#9F4D32" offset="1"/>
  </linearGradient>
 </defs>
 <g>
  <title>Layer 1</title>
  <g id="head">
   <g id="svg_1">
    <path id="svg_2" fill="#FFB1A5" d="m-348.4,352.3c-1.2,-21.5 -2.2,-39.7 -2.2,-39.7s-16.5,11.5 -31.5,14.3s-29.5,-6 -29.7,-6.1s-17.4,-10.1 -17.4,-10.1s-0.2,3.8 -0.6,10c-0.9,15.5 -2.7,46 -4.2,69.1c11.2,15.8 28.1,28.3 53.6,30.8c0.9,0.1 1.8,0.2 2.7,0.3c6.1,0.4 11.4,0.3 16.1,-0.2c6.9,-0.6 12.4,-2 16.7,-4.1c-0.5,-10.8 -2.2,-39.7 -3.5,-64.3z" class="st0"/>
    <path id="svg_3" fill="#111D36" d="m-430.9,309.9c0,0 19.7,46.5 49.1,43.1c30.7,-3.6 35.7,-41.8 35.7,-41.8l-84.8,-1.3z" class="st1"/>
    <path id="svg_4" fill="#F9A9A3" d="m-267.5,176.2c-6.6,1.1 -5.5,8.8 -6.6,11.1l-4.4,7.7l0,-13.2l4.4,-11.1c0,0 -1.1,-39.7 -5.5,-57.3c-4.4,-17.7 -26.5,-51.8 -59.6,-59.6c-30.8,-7.2 -40,-7.9 -41.2,-8l0,0l-0.1,0c-0.1,0 -0.1,0 -0.1,0l0,0c-1.2,0.1 -10.5,0.9 -41.2,8c-33.1,7.7 -55.1,41.9 -59.6,59.6s-5.5,57.3 -5.5,57.3l4.4,11.1l0,13.2l-4.4,-7.7c-1.1,-2.2 0,-9.9 -6.6,-11.1c-12.1,-2.1 -11,34.2 -11,34.2l7.7,15.4c0,0 3.3,3.3 8.8,17.7c5.5,14.4 8.8,13.2 12.1,12.1c3.4,-1.1 3.4,4.4 3.4,4.4s0,3.3 5.5,18.7s18.7,24.3 45.2,38.6c25.8,14 40.5,13.6 41.3,13.6c0.8,0.1 15.5,0.4 41.3,-13.6c26.5,-14.4 39.7,-23.2 45.2,-38.6s5.5,-18.7 5.5,-18.7s0,-5.5 3.3,-4.4c3.3,1.1 6.6,2.2 12.1,-12.1c5.5,-14.4 8.8,-17.7 8.8,-17.7l7.7,-15.4c0.1,0 1.2,-36.2 -10.9,-34.2z" class="st2"/>
   </g>
   <path id="svg_5" fill="#FFFFFF" d="m-416.9,255.8l70.9,0c0,0 -5.8,13.8 -35.5,13.8c-24.9,0 -35.4,-13.8 -35.4,-13.8z" class="st3"/>
   <path id="svg_6" fill="#9B2121" d="m-361.8,250.5c-10.9,-3.7 -16.5,-1.3 -18.2,-0.4c-1.6,-0.9 -7.2,-3.3 -18.2,0.4c-13.2,4.4 -26.5,7.7 -26.5,7.7l44.1,0l1.1,0l41.4,0l2.7,0c0,0.1 -13.2,-3.2 -26.4,-7.7z" class="st4"/>
   <path id="svg_7" fill="#9B2121" d="m-359.5,267c-13.2,4.4 -21,2.9 -21,2.9s-7.7,1.6 -21,-2.9c-13.2,-4.4 -23.4,-9.2 -23.4,-9.2s3.1,4.1 3.9,4.9c1.7,1.7 -0.1,0.9 9.5,7.6c14.4,9.9 22,12.1 29.8,12.1c0.4,0 0.8,0 1.1,0c0.4,0 0.8,0 1.1,0c7.7,0 15.4,-2.2 29.8,-12.1c7.2,-4.9 4.3,-3.8 6.7,-5.8c2.3,-2.1 4.9,-6.9 4.9,-6.9s-8.2,5 -21.4,9.4z" class="st4"/>
   <g id="svg_8">
    <path id="svg_9" d="m-385.4,244.6c0.2,0 -0.1,-0.1 -0.5,-0.3c0.2,0.2 0.3,0.3 0.5,0.3z"/>
    <path id="svg_10" d="m-397.5,236.9c0,0 -9.9,2.2 -12.1,1.1c-2.2,-1.1 -3.3,4.4 -4.4,4.4s1.1,-3.3 1.1,-3.3s-2.2,2.2 -3.3,3.3c-0.9,0.9 -8.9,8.9 -11.1,11.1c3.3,-3.3 15.4,-7.7 24.3,-9.9c7.2,-1.8 15.1,0.1 17.2,0.8c-0.6,-0.6 -1.4,-1.9 -1.9,-3c1.3,1.1 3.5,2.2 3.5,2.2s-0.9,-2.4 -1.6,-4.3c1.4,2.3 3.8,3.2 3.8,3.2c4.3,-7.8 -15.5,-5.6 -15.5,-5.6z"/>
    <path id="svg_11" d="m-344.7,242.4c-1.1,-1.1 -3.3,-3.3 -3.3,-3.3s2.2,3.3 1.1,3.3s-2.2,-5.5 -4.4,-4.4s-12.1,-1.1 -12.1,-1.1s-19.9,-2.2 -15.4,5.5c0,0 2.4,-0.8 3.8,-3.2c-0.7,1.8 -1.6,4.2 -1.6,4.2s2.2,-1.1 3.5,-2.2c-0.6,1 -1.3,2.4 -1.9,3c2,-0.8 9.9,-2.6 17.2,-0.8c8.8,2.2 21,6.6 24.3,9.9c3.1,3.4 -10.2,-9.8 -11.2,-10.9z"/>
    <path id="svg_12" d="m-375.6,244.6c0.2,0 0.3,-0.1 0.5,-0.3c-0.5,0.2 -0.7,0.3 -0.5,0.3z"/>
   </g>
   <g id="svg_13">
    <g id="svg_14">
     <path id="svg_15" fill="#0F100D" d="m-288.1,63.8c-7.5,-6.7 -25.2,-18.5 -44.3,-25.5c-13,-4.8 -26.8,-7.2 -39.1,-8.1c-0.9,-0.2 -1.8,-0.3 -2.8,-0.3c-2.3,-0.1 -4.7,-0.2 -7.3,-0.1c-2.5,0 -5,0 -7.3,0.1c-1,0.1 -1.9,0.2 -2.9,0.3c-12.2,0.9 -26.1,3.3 -39.1,8.1c-19.1,7 -36.7,18.8 -44.3,25.5c-19.6,17.8 -21.7,59.4 -18.4,80.9c3.1,19.9 6.1,46.7 6.5,50.6l4.7,-0.3c3.6,-4.7 -0.1,-7.8 0,-13.2c0.7,-48.1 8.5,-42.7 6.5,-58.5c-2.2,-17.6 16.7,-45.3 16.7,-45.3s32.7,-10.2 48.5,-7c21.3,4.4 29.2,5.9 29.2,5.9s0,0 0.1,-0.1c0,0.1 0.1,0.1 0.1,0.1s7.9,-1.5 29.2,-5.9c15.8,-3.3 48.5,6.9 48.5,6.9s18.9,27.7 16.7,45.3c-2,15.7 18.6,23.2 7.6,60.7c-4.5,15.2 3.6,10.3 3.3,17.7l0.3,-6.3c0.4,-3.8 3.5,-30.7 6.5,-50.6c3.1,-21.5 1.1,-63.1 -18.9,-80.9z" class="st5"/>
    </g>
    <path id="svg_16" fill="#302C2B" d="m-437.3,72.5c-3.3,2.2 -10.9,1.6 -22,5.5c-14.5,5 -31.3,9.5 -26.5,-14.4c3.9,-25.3 56.7,-56.4 62.1,-59.5c5.4,-3.1 27.4,-5.4 31.7,-3.3c9.9,5.5 12.1,6.6 12.1,6.6s7.9,-0.5 12.1,0c8.5,-2.7 18.5,-6.9 19.9,-2.2c1.4,4.7 12.5,2.9 14.5,4c1.9,1.2 10.7,5.2 11.1,7.9c0.3,2.6 11.1,5.6 14.1,10.2s10.5,15.6 7.5,19.6c-3.6,4.7 22.8,32.3 22.4,31.1c-4.9,-13.1 -97.9,-7.6 -105.9,-6c-24.2,5 -53.1,0.5 -53.1,0.5z" class="st6"/>
    <path id="svg_17" fill="#0F100D" d="m-330.1,29.2c0.1,-0.3 0.1,-0.5 0.1,-0.7c0,-0.6 -0.1,-0.3 -0.1,0.7z" class="st5"/>
    <path id="svg_18" fill="#0F100D" d="m-292.7,49.3c-2.3,-0.9 -8.5,-8.5 -10.2,-12.2l0,0c0.4,6.3 -7.2,11.5 -6.5,6.1s-2.3,-12.7 -2.3,-12.7c-3.6,21.9 -23.2,18.7 -20.9,12.7c1.7,-4.4 2.3,-11.5 2.5,-14.1c-0.9,3.7 -7.5,17.2 -13.6,20.9c-6.5,4.1 -14.4,7.9 -8.5,-5.6c5.9,-13.4 10.1,-26.6 10.1,-26.6c-6.2,15.8 -18.3,35.3 -28.7,41.2s-4.9,-7.3 -4.9,-7.3c-8.5,4.1 -5.6,13.1 -21.9,17.8c-16.3,4.7 0,-16.8 0,-16.8c-13.7,14 -33.3,10.5 -33.3,10.5c-1.5,-26.5 30.4,-47.1 30.4,-47.1c-8.3,4.9 -21.6,11 -36.3,30.3c-14.7,19.3 -33.4,-3.9 -33.4,-3.9l0,0c3,29.9 35.8,24.6 35.8,24.6s25.5,6.4 50.1,5c8.9,-0.5 110,12.9 106,3.8c-0.2,-0.4 15.4,-14.4 -14.4,-26.6z" class="st5"/>
    <path id="svg_19" fill="#515151" d="m-412,41.6c0,0 23.3,-28.2 38.9,-34.8c-3.1,4.6 -6.2,8.8 -7.5,12.9c3.5,-2 17.5,-7.5 25.5,-17.2c-4.1,11.5 -14.4,20.2 -15.3,26.1c1.8,-3.4 13.3,-10.2 18.3,-15.6c-6.9,12.8 -34.3,36.5 -34.3,36.5s11,-9.1 10.8,-17c-4,5 -10.5,11.7 -23.5,17c12.9,-13 11.5,-21.6 11.5,-21.6s-13.9,9.1 -24.4,13.7z" class="st7"/>
    <path id="svg_20" fill="#515151" d="m-337.8,15.2c0,0 -1.5,10.2 -3.2,14.9s2.1,0.4 3.2,-1.3c1.1,-1.7 1.5,0.6 1.1,1.2c-0.4,0.7 1.1,0.8 1.9,-1.7c0.9,-2.4 2.2,0 2.2,0s2.3,-1.2 3,-3.2c0.6,-2 1.8,5.6 1.3,7.1c-0.5,1.6 2.6,-3 2.6,-3s1.1,4.9 0,9.8c-1.1,4.9 6.5,3.1 7.3,-6.6c0.9,-9.7 -1.3,-11.2 -2.6,-11.3c-1.2,-0.1 -1.7,3.4 -1.7,3.4s-1,-5.8 -3.6,-6.8c-2.6,-1 -4.9,1.1 -4.8,1.7c0.3,0.6 -6.7,-12.9 -6.7,-4.2z" class="st7"/>
    <path id="svg_21" fill="#515151" d="m-459.9,27.5c0,0 2.8,-11.3 22.2,-16.7c19.5,-5.3 20.5,-4.3 29.5,-8.8s-11.1,9.4 -16.1,10.4s10.8,-1.3 18.4,-2.6s-13.4,7.5 -24.7,17.8c-11.7,10.6 -9.8,13.6 -14.2,18.8c-1.4,-6.9 -0.6,-14 0.6,-16.4c1.1,-2.5 -5,-0.2 -9.3,5.1c-4.3,5.2 1.3,-5.6 1.3,-7.3c0,-1.9 -7.9,3.5 -7.7,-0.3z" class="st7"/>
    <path id="svg_22" fill="#4A4A48" d="m-444.2,29.9c1.1,-2.5 -5,-0.2 -9.3,5.1c-4.3,5.2 -1,-4.5 1.3,-7.3" class="st8"/>
   </g>
   <g id="svg_23">
    <path id="svg_24" d="m-389.5,288.5c0.2,-0.1 0.3,-0.1 0.5,-0.2c-0.5,-2.6 0,-0.5 -0.5,0.2z"/>
    <path id="svg_25" d="m-389.8,288.7c0.2,0 0.3,-0.1 0.3,-0.2c-0.4,0.1 -0.6,0.2 -0.3,0.2z"/>
    <path id="svg_26" d="m-384.3,287.6c0.5,0.5 1.2,1.1 1.9,1.7c-1,-1.1 -2.5,-2.3 -1.9,-1.7z"/>
    <path id="svg_27" d="m-371.5,288.5c0.1,0.1 0.2,0.2 0.3,0.2c0.3,0 0.1,-0.1 -0.3,-0.2z"/>
    <path id="svg_28" d="m-372,288.4c0.2,0.1 0.4,0.1 0.5,0.2c-0.5,-0.8 0,-2.9 -0.5,-0.2z"/>
    <path id="svg_29" d="m-378.7,289.3c0.7,-0.6 1.5,-1.2 2,-1.7c0.6,-0.6 -0.9,0.6 -2,1.7z"/>
    <path id="svg_30" d="m-378.9,290.9c-1.6,0.6 -0.9,-0.5 0.3,-1.6c-0.9,0.7 -1.7,1.3 -1.8,1.4c-0.1,-0.1 -0.9,-0.7 -1.8,-1.4c1.1,1.1 1.9,2.2 0.3,1.6c-3.3,-1.1 -3.3,-3.3 -3.3,-3.3s-2.2,0.5 -3.6,0.8c0.1,0.4 0.2,0.8 0.3,1.4c1.1,5.5 1.1,5.5 1.1,5.5s-1.1,-5.5 0,-4.4s1.1,6.6 1.1,6.6l1.1,-2.2l3.3,4.4l0,3.3l1.1,-2.2l0.4,1.6l0,0.6l0.1,-0.3l0.1,0.3l0,-0.6l0.4,-1.6l1.1,2.2l0,-3.3l3.3,-4.4l1.1,2.2c0,0 0,-5.5 1.1,-6.6c1.1,-1.1 0,4.4 0,4.4s0,0 1.1,-5.5c0.1,-0.6 0.2,-1.1 0.3,-1.4c-1.3,-0.3 -3.6,-0.8 -3.6,-0.8s-0.2,2.2 -3.5,3.3z"/>
   </g>
   <g id="svg_31">
    <path id="svg_32" d="m-385.4,233.6c0,0 -3.3,-8.8 -12.1,-7.7s-8.8,0 -8.8,0s13.2,-0.1 20.9,7.7z"/>
    <path id="svg_33" d="m-375.6,233.6c0,0 3.3,-8.7 12.1,-7.6c8.8,1.1 8.8,0 8.8,0s-13.2,-0.1 -20.9,7.6z"/>
   </g>
   <path id="svg_34" d="m-277.9,157.5c0,-2.2 -3.3,-9.9 -3.3,-9.9l-3.3,0c0,0 0,-1.1 -15.4,-8.8s-62.9,8.8 -62.9,8.8c-3.3,1.1 -6.6,12.1 -6.6,12.1l-13.6,0.6l0,0.2l-9.5,0.2c0,0 -3.3,-11.1 -6.6,-12.1c0,0 -47.4,-16.5 -62.9,-8.8c-15.5,7.6 -15.5,8.6 -15.5,8.6l-3.3,0c0,0 -3.3,7.7 -3.3,9.9s-4.1,21.7 -4.1,21.7l4,12c0,0 2.4,-30.4 3.5,-31.5c1.1,-1.1 4.4,-2.2 5.5,3.3c1.1,5.5 3.3,8.8 3.3,8.8s7.7,32 18.7,37.5c11.1,5.5 14.4,5.5 19.9,5.5s15.4,-4.4 21,-8.8c5.5,-4.4 9.9,-9.9 13.2,-16.5c3.3,-6.6 6.6,-8.8 7.7,-15.4c1.1,-6.6 0,-9.9 0,-9.9l8,-0.8l0,0.1l9.6,-0.6c0,0 2.1,3.7 3.3,10.3c1.1,6.6 4.4,8.8 7.7,15.4c3.3,6.6 7.7,12.1 13.2,16.5s15.4,8.8 21,8.8c5.5,0 8.8,0 19.9,-5.5c11.1,-5.5 18.7,-37.5 18.7,-37.5s2.2,-3.3 3.3,-8.8s4.4,-4.4 5.5,-3.3c1.1,1.1 5.1,32.5 5.1,32.5l2.2,-17.7c0,0.2 -4,-14.7 -4,-16.9zm-122.4,29.5c-3.3,9.9 -12.1,16.5 -19.9,22c-7.7,5.5 -15.4,3.3 -26.5,0c-11.1,-3.3 -17.7,-19.9 -19.9,-23.2s-4.4,-21 -3.3,-27.6c1.1,-6.6 5.5,-11.1 36.4,-14.4c30.9,-3.3 37.5,23.2 37.5,23.2s-1,10.1 -4.3,20zm104.8,-1.9c-2.2,3.3 -8.8,19.9 -19.9,23.2s-18.7,5.5 -26.5,0c-7.7,-5.5 -16.5,-12.1 -19.9,-22c-3.3,-9.9 -4.4,-19.9 -4.4,-19.9s6.6,-26.5 37.5,-23.2s35.3,7.7 36.4,14.4c1.2,6.5 -1,24.2 -3.2,27.5z"/>
   <g id="svg_35">
    <g id="svg_36">
     <g id="svg_37">
      <path id="svg_38" fill="#FFFFFF" d="m-402.5,165.6c-0.3,-0.3 -0.5,-0.5 -0.9,-0.5c-4.2,-5.9 -8.8,-8.4 -15.5,-8.4c-5.6,0 -16.4,0.5 -20.5,5.6c0,0 6.5,5.1 16.4,5.1s17.3,-1.3 17.3,-1.3l4.8,1l-1.6,-1.5z" class="st3"/>
     </g>
     <g id="XMLID_17_">
      <path id="svg_39" fill="url(#SVGID_1_)" d="m-414.7,161.9c0.1,-1.9 -0.5,-3.6 -1.6,-5c-0.8,-0.1 -1.7,-0.2 -2.6,-0.2c-2.7,0 -6.8,0.1 -10.7,0.9c-0.7,1.1 -1.1,2.4 -1.2,3.8c-0.1,2 0.6,3.9 1.8,5.3c1.8,0.4 3.8,0.6 6,0.6c2.1,0 4.1,-0.1 6,-0.2c1.3,-1.3 2.2,-3.1 2.3,-5.2z" class="st9"/>
      <path id="svg_40" fill="url(#SVGID_2_)" d="m-416,161.8c0.1,-1.7 -0.5,-3.3 -1.5,-4.5c-0.4,-0.2 -0.9,-0.4 -1.3,-0.6c-2.4,0 -5.8,0.1 -9.1,0.6c-1,1.1 -1.6,2.5 -1.6,4.1c-0.1,2.3 1,4.4 2.7,5.7c1.2,0.2 2.5,0.3 3.8,0.3c1.4,0 2.7,0 4,-0.1c1.7,-1.2 2.9,-3.2 3,-5.5z" class="st10"/>
      <path d="m-418.1,160.5c0.7,3.6 -2.6,6.7 -6.2,5.7c-1.6,-0.5 -3,-1.9 -3.3,-3.6c-0.7,-3.6 2.5,-6.6 6.1,-5.6c1.8,0.4 3.1,1.9 3.4,3.5z" id="XMLID_20_"/>
      <path fill="#FFFFFF" d="m-420.2,159.1c-0.1,1 -1.1,1 -2.5,1c-1.4,-0.1 -2.4,-0.1 -2.4,-1.1c0.1,-1 1.2,-1.8 2.5,-1.8c1.3,0 2.4,0.9 2.4,1.9z" class="st3" id="XMLID_19_"/>
      <path fill="#FFFFFF" d="m-422.3,164.9c0,0.3 -0.3,0.6 -0.6,0.6c-0.3,0 -0.6,-0.3 -0.6,-0.6s0.3,-0.6 0.6,-0.6c0.3,0 0.6,0.3 0.6,0.6z" class="st3" id="XMLID_18_"/>
     </g>
     <path id="svg_41" d="m-439.3,162.3c4.6,-4.1 11.9,-4.4 17.6,-4.7c2.9,-0.2 5.8,-0.7 8.6,0c2.9,0.7 8.6,4 9.1,7.6c0.1,0.3 0.4,0.6 0.7,0.6c0.3,0 0.6,0 0.9,0.1c0.2,0.1 0.4,-0.2 0.4,-0.4c-0.5,-1.3 -1.6,-1.2 -2.3,-2.3c-1.2,-1.6 -2.7,-2.9 -4.3,-4c-3,-2.1 -7.1,-3 -10.6,-3.3c-6.5,-0.5 -15.6,0.3 -20.1,6.4c-0.3,0 -0.2,0.1 0,0l0,0z"/>
    </g>
    <g id="svg_42">
     <g id="svg_43">
      <path id="svg_44" fill="#FFFFFF" d="m-352.4,165.3c0.2,-0.3 0.5,-0.5 0.9,-0.5c3.9,-5.9 8.2,-8.4 14.6,-8.4c5.2,0 15.4,0.5 19.4,5.6c0,0 -6.1,5.1 -15.5,5.1s-16.3,-1.3 -16.3,-1.3l-4.6,1l1.5,-1.5z" class="st3"/>
     </g>
     <g id="XMLID_13_">
      <path id="svg_45" fill="url(#SVGID_3_)" d="m-329.9,166.9c1.1,-1.3 1.9,-3.1 1.9,-5c0.1,-1.9 -0.5,-3.6 -1.5,-5c-2.8,-0.4 -5.5,-0.5 -7.5,-0.5c-1.9,0 -3.6,0.3 -5.1,0.7c-0.9,1.2 -1.4,2.7 -1.4,4.3c-0.1,2 0.6,3.9 1.7,5.3c2.5,0.2 5.4,0.4 8.8,0.4c1.1,0 2.1,-0.1 3.1,-0.2z" class="st11"/>
      <path id="svg_46" fill="url(#SVGID_4_)" d="m-331.1,166.4c1.2,-1.2 2,-2.9 2,-4.7c0.1,-2 -0.8,-3.9 -2.1,-5.2c-2.1,-0.2 -4.2,-0.3 -5.8,-0.3c-1.1,0 -2.2,0.1 -3.2,0.3c-1.3,1.2 -2.1,2.9 -2.2,4.8c-0.1,2.1 0.8,4.1 2.3,5.4c2.2,0.2 4.7,0.3 7.4,0.3c0.5,-0.1 1.2,-0.3 1.6,-0.6z" class="st12"/>
      <path d="m-331,161.8c-0.1,2.6 -2.3,4.7 -4.8,4.7c-2.6,-0.1 -4.6,-2.3 -4.5,-4.9c0.1,-2.6 2.2,-4.7 4.8,-4.6c2.6,-0.1 4.6,2.1 4.5,4.8z" id="XMLID_16_"/>
      <path fill="#FFFFFF" d="m-333.2,159.1c-0.1,1 -1.1,1 -2.4,1c-1.3,-0.1 -2.3,-0.1 -2.3,-1.1c0.1,-1 1.1,-1.8 2.4,-1.8s2.3,0.9 2.3,1.9z" class="st3" id="XMLID_15_"/>
      <path fill="#FFFFFF" d="m-335.3,164.9c0,0.3 -0.3,0.6 -0.6,0.6c-0.3,0 -0.6,-0.3 -0.6,-0.6s0.3,-0.6 0.6,-0.6c0.4,0 0.6,0.3 0.6,0.6z" class="st3" id="XMLID_14_"/>
     </g>
     <path id="svg_47" d="m-317.6,162c-4.3,-4.1 -11.3,-4.4 -16.5,-4.7c-2.7,-0.2 -5.4,-0.7 -8.1,0s-8,4 -8.6,7.6c-0.1,0.3 -0.4,0.6 -0.7,0.6c-0.3,0 -0.5,0 -0.8,0.1c-0.2,0.1 -0.4,-0.2 -0.3,-0.4c0.4,-1.3 1.5,-1.2 2.2,-2.3c1.1,-1.6 2.6,-2.9 4.1,-4c2.9,-2.1 6.7,-3 10,-3.3c6.1,-0.5 14.7,0.3 18.8,6.3c0.1,0.1 0,0.2 -0.1,0.1l0,0z"/>
    </g>
   </g>
   <path id="svg_48" fill="#D72323" d="m-275.3,83.1l-212,-2c0,0 -11,33 -8,45c2.9,11.6 121,-33 121,-33s67,27 106,26c0,0 -1,-31 -7,-36z" class="st13"/>
  </g>
  <path fill="#D72323" d="m-370.5,90.6l137.1,-69.4c2.6,-1.3 1.1,-5.2 -1.7,-4.4c-38.3,9.9 -120.7,35.3 -135.4,73.8z" class="st13" id="bright"/>
  <path fill="#D72323" d="m-367.2,83.9l-114,90c-13.6,5.4 -10.1,-4.6 -7.1,-7.7c42.7,-44.8 114.1,-115 121.1,-82.3z" class="st13" id="bleft"/>
  <g id="svg_49">
   <g id="head_1_">
    <g id="svg_50">
     <path id="svg_51" fill="#FFB1A5" d="m-107.8,163.5c-0.5,-8.9 -0.9,-16.4 -0.9,-16.4s-6.8,4.8 -13,5.9s-12.2,-2.5 -12.3,-2.5c-0.1,0 -7.2,-4.2 -7.2,-4.2s-0.1,1.6 -0.2,4.1c-0.4,6.4 -1.1,19 -1.7,28.6c4.6,6.5 11.6,11.7 22.2,12.7c0.4,0 0.7,0.1 1.1,0.1c2.5,0.2 4.7,0.1 6.7,-0.1c2.9,-0.2 5.1,-0.8 6.9,-1.7c-0.3,-4.3 -1,-16.3 -1.6,-26.5z" class="st0"/>
     <path id="svg_52" fill="#111D36" d="m-141.9,146c0,0 8.1,19.2 20.3,17.8c12.7,-1.5 14.8,-17.3 14.8,-17.3l-35.1,-0.5z" class="st1"/>
     <path id="svg_53" fill="#F9A9A3" d="m-74.3,90.8c-2.7,0.5 -2.3,3.6 -2.7,4.6l-1.8,3.2l0,-5.5l1.8,-4.6c0,0 -0.5,-16.4 -2.3,-23.7c-1.8,-7.3 -11,-21.4 -24.6,-24.6c-12.7,-3 -16.5,-3.3 -17,-3.3l0,0l0,0c0,0 0,0 0,0l0,0c-0.5,0 -4.3,0.4 -17,3.3c-13.7,3.2 -22.8,17.3 -24.6,24.6c-1.9,7.3 -2.3,23.7 -2.3,23.7l1.8,4.6l0,5.5l-1.8,-3.2c-0.5,-0.9 0,-4.1 -2.7,-4.6c-5,-0.9 -4.5,14.1 -4.5,14.1l3.2,6.4c0,0 1.4,1.4 3.6,7.3c2.3,6 3.6,5.5 5,5c1.4,-0.5 1.4,1.8 1.4,1.8s0,1.4 2.3,7.7c2.3,6.4 7.7,10 18.7,16c10.7,5.8 16.7,5.6 17.1,5.6c0.3,0 6.4,0.2 17.1,-5.6c11,-6 16.4,-9.6 18.7,-16c2.3,-6.4 2.3,-7.7 2.3,-7.7s0,-2.3 1.4,-1.8c1.4,0.5 2.7,0.9 5,-5c2.3,-6 3.6,-7.3 3.6,-7.3l3.2,-6.4c-0.4,0 0.1,-15 -4.9,-14.1z" class="st2"/>
    </g>
    <path id="svg_54" fill="#FFFFFF" d="m-136.1,123.7l29.3,0c0,0 -2.4,5.7 -14.7,5.7c-10.2,0 -14.6,-5.7 -14.6,-5.7z" class="st3"/>
    <path id="svg_55" fill="#9B2121" d="m-113.3,121.5c-4.5,-1.5 -6.8,-0.5 -7.5,-0.2c-0.7,-0.4 -3,-1.4 -7.5,0.2c-5.5,1.8 -11,3.2 -11,3.2l18.2,0l0.5,0l17.1,0l1.1,0c0,0 -5.5,-1.4 -10.9,-3.2z" class="st4"/>
    <path id="svg_56" fill="#9B2121" d="m-112.4,128.3c-5.5,1.8 -8.7,1.2 -8.7,1.2s-3.2,0.7 -8.7,-1.2c-5.5,-1.8 -9.7,-3.8 -9.7,-3.8s1.3,1.7 1.6,2c0.7,0.7 0,0.4 3.9,3.1c6,4.1 9.1,5 12.3,5c0.2,0 0.3,0 0.5,0c0.2,0 0.3,0 0.5,0c3.2,0 6.4,-0.9 12.3,-5c3,-2 1.8,-1.6 2.8,-2.4c1,-0.9 2,-2.9 2,-2.9s-3.3,2.2 -8.8,4z" class="st4"/>
    <g id="svg_57">
     <path id="svg_58" d="m-123.1,119c0.1,0 0,0 -0.2,-0.1c0.1,0.1 0.1,0.1 0.2,0.1z"/>
     <path id="svg_59" d="m-128.1,115.9c0,0 -4.1,0.9 -5,0.5s-1.4,1.8 -1.8,1.8s0.5,-1.4 0.5,-1.4s-0.9,0.9 -1.4,1.4c-0.4,0.4 -3.7,3.7 -4.6,4.6c1.4,-1.4 6.4,-3.2 10,-4.1c3,-0.7 6.2,0 7.1,0.3c-0.2,-0.2 -0.6,-0.8 -0.8,-1.2c0.5,0.5 1.4,0.9 1.4,0.9s-0.4,-1 -0.7,-1.8c0.6,1 1.6,1.3 1.6,1.3c1.9,-3.2 -6.3,-2.3 -6.3,-2.3z"/>
     <path id="svg_60" d="m-106.3,118.1c-0.5,-0.5 -1.4,-1.4 -1.4,-1.4s0.9,1.4 0.5,1.4c-0.5,0 -0.9,-2.3 -1.8,-1.8c-0.9,0.5 -5,-0.5 -5,-0.5s-8.2,-0.9 -6.4,2.3c0,0 1,-0.3 1.6,-1.3c-0.3,0.7 -0.7,1.7 -0.7,1.7s0.9,-0.5 1.4,-0.9c-0.2,0.4 -0.5,1 -0.8,1.2c0.8,-0.3 4.1,-1.1 7.1,-0.3c3.6,0.9 8.7,2.7 10,4.1c1.5,1.4 -4,-4 -4.5,-4.5z"/>
     <path id="svg_61" d="m-119,119c0.1,0 0.1,0 0.2,-0.1c-0.2,0.1 -0.3,0.1 -0.2,0.1z"/>
    </g>
    <g id="svg_62">
     <g id="svg_63">
      <path id="svg_64" fill="#0F100D" d="m-82.9,44.3c-3.1,-2.8 -10.4,-7.6 -18.3,-10.5c-5.4,-2 -11.1,-3 -16.2,-3.3c-0.4,-0.1 -0.7,-0.1 -1.2,-0.1c-1,0 -1.9,-0.1 -3,0c-1,0 -2.1,0 -3,0c-0.4,0 -0.8,0.1 -1.2,0.1c-5,0.4 -10.8,1.4 -16.2,3.3c-7.9,2.9 -15.2,7.8 -18.3,10.5c-8.1,7.4 -9,24.5 -7.6,33.4c1.3,8.2 2.5,19.3 2.7,20.9l1.9,-0.1c1.5,-1.9 0,-3.2 0,-5.5c0.3,-19.9 3.5,-17.6 2.7,-24.2c-0.9,-7.3 6.9,-18.7 6.9,-18.7s13.5,-4.2 20,-2.9c8.8,1.8 12.1,2.4 12.1,2.4s0,0 0,0c0,0 0,0 0,0s3.3,-0.6 12.1,-2.4c6.5,-1.4 20,2.9 20,2.9s7.8,11.4 6.9,18.7c-0.8,6.5 7.7,9.6 3.1,25.1c-1.9,6.3 1.5,4.3 1.4,7.3l0.1,-2.6c0.2,-1.6 1.4,-12.7 2.7,-20.9c1.5,-8.8 0.7,-26 -7.6,-33.4z" class="st5"/>
     </g>
     <path id="svg_65" fill="#302C2B" d="m-144.5,47.9c-1.4,0.9 -4.5,0.7 -9.1,2.3c-6,2.1 -12.9,3.9 -11,-6c1.6,-10.5 23.4,-23.3 25.7,-24.6s11.3,-2.2 13.1,-1.4c4.1,2.3 5,2.7 5,2.7s3.3,-0.2 5,0c3.5,-1.1 7.6,-2.9 8.2,-0.9s5.2,1.2 6,1.7c0.8,0.5 4.4,2.1 4.6,3.3c0.1,1.1 4.6,2.3 5.8,4.2c1.2,1.9 4.3,6.4 3.1,8.1c-1.5,1.9 9.4,13.3 9.3,12.9c-2,-5.4 -40.5,-3.1 -43.8,-2.5c-10,2.1 -21.9,0.2 -21.9,0.2z" class="st6"/>
     <path id="svg_66" fill="#0F100D" d="m-100.2,30c0,-0.1 0,-0.2 0,-0.3c0,-0.2 0,-0.1 0,0.3z" class="st5"/>
     <path id="svg_67" fill="#0F100D" d="m-84.8,38.3c-1,-0.4 -3.5,-3.5 -4.2,-5l0,0c0.2,2.6 -3,4.8 -2.7,2.5c0.3,-2.2 -1,-5.2 -1,-5.2c-1.5,9.1 -9.6,7.7 -8.6,5.2c0.7,-1.8 1,-4.8 1,-5.8c-0.4,1.5 -3.1,7.1 -5.6,8.6c-2.7,1.7 -6,3.3 -3.5,-2.3c2.4,-5.5 4.2,-11 4.2,-11c-2.6,6.5 -7.6,14.6 -11.9,17c-4.3,2.4 -2,-3 -2,-3c-3.5,1.7 -2.3,5.4 -9.1,7.4c-6.7,1.9 0,-6.9 0,-6.9c-5.7,5.8 -13.8,4.3 -13.8,4.3c-0.6,-11 12.6,-19.5 12.6,-19.5c-3.4,2 -8.9,4.5 -15,12.5s-13.8,-1.6 -13.8,-1.6l0,0c1.2,12.4 14.8,10.2 14.8,10.2s10.5,2.6 20.7,2.1c3.7,-0.2 45.5,5.3 43.8,1.6c0,-0.2 6.5,-6 -5.9,-11.1z" class="st5"/>
     <path id="svg_68" fill="#515151" d="m-134.1,35.2c0,0 9.6,-11.7 16.1,-14.4c-1.3,1.9 -2.6,3.6 -3.1,5.3c1.4,-0.8 7.2,-3.1 10.5,-7.1c-1.7,4.8 -6,8.3 -6.3,10.8c0.7,-1.4 5.5,-4.2 7.6,-6.4c-2.9,5.3 -14.2,15.1 -14.2,15.1s4.5,-3.8 4.5,-7c-1.7,2.1 -4.3,4.8 -9.7,7c5.3,-5.4 4.8,-8.9 4.8,-8.9s-5.8,3.7 -10.2,5.6z" class="st7"/>
     <path id="svg_69" fill="#515151" d="m-103.4,24.2c0,0 -0.6,4.2 -1.3,6.2c-0.7,1.9 0.9,0.2 1.3,-0.5c0.5,-0.7 0.6,0.2 0.5,0.5c-0.2,0.3 0.5,0.3 0.8,-0.7c0.4,-1 0.9,0 0.9,0s1,-0.5 1.2,-1.3c0.2,-0.8 0.7,2.3 0.5,2.9c-0.2,0.7 1.1,-1.2 1.1,-1.2s0.5,2 0,4c-0.5,2 2.7,1.3 3,-2.7c0.4,-4 -0.5,-4.6 -1.1,-4.7c-0.5,0 -0.7,1.4 -0.7,1.4s-0.4,-2.4 -1.5,-2.8c-1.1,-0.4 -2,0.5 -2,0.7c0.2,0.2 -2.7,-5.4 -2.7,-1.8z" class="st7"/>
     <path id="svg_70" fill="#515151" d="m-153.9,29.3c0,0 1.2,-4.7 9.2,-6.9c8.1,-2.2 8.5,-1.8 12.2,-3.6c3.7,-1.9 -4.6,3.9 -6.7,4.3c-2.1,0.4 4.5,-0.5 7.6,-1.1c3.1,-0.5 -5.5,3.1 -10.2,7.4c-4.8,4.4 -4,5.6 -5.9,7.8c-0.6,-2.9 -0.2,-5.8 0.2,-6.8c0.5,-1 -2.1,-0.1 -3.8,2.1c-1.8,2.1 0.5,-2.3 0.5,-3c0.1,-0.8 -3.1,1.4 -3.1,-0.2z" class="st7"/>
     <path id="svg_71" fill="#4A4A48" d="m-147.4,30.3c0.5,-1 -2.1,-0.1 -3.8,2.1c-1.8,2.1 -0.4,-1.9 0.5,-3" class="st8"/>
    </g>
    <g id="svg_72">
     <path id="svg_73" d="m-124.8,137.2c0.1,0 0.1,0 0.2,-0.1c-0.2,-1.1 0,-0.2 -0.2,0.1z"/>
     <path id="svg_74" d="m-124.9,137.3c0.1,0 0.1,0 0.1,-0.1c-0.1,0 -0.2,0.1 -0.1,0.1z"/>
     <path id="svg_75" d="m-122.6,136.8c0.2,0.2 0.5,0.5 0.8,0.7c-0.4,-0.4 -1.1,-0.9 -0.8,-0.7z"/>
     <path id="svg_76" d="m-117.3,137.2c0,0 0.1,0.1 0.1,0.1c0.1,0 0,-0.1 -0.1,-0.1z"/>
     <path id="svg_77" d="m-117.5,137.1c0.1,0 0.2,0 0.2,0.1c-0.2,-0.3 0,-1.2 -0.2,-0.1z"/>
     <path id="svg_78" d="m-120.3,137.5c0.3,-0.2 0.6,-0.5 0.8,-0.7c0.3,-0.2 -0.3,0.3 -0.8,0.7z"/>
     <path id="svg_79" d="m-120.4,138.2c-0.7,0.2 -0.4,-0.2 0.1,-0.7c-0.4,0.3 -0.7,0.5 -0.7,0.6c0,0 -0.4,-0.3 -0.7,-0.6c0.5,0.5 0.8,0.9 0.1,0.7c-1.4,-0.5 -1.4,-1.4 -1.4,-1.4s-0.9,0.2 -1.5,0.3c0,0.2 0.1,0.3 0.1,0.6c0.5,2.3 0.5,2.3 0.5,2.3s-0.5,-2.3 0,-1.8c0.5,0.5 0.5,2.7 0.5,2.7l0.5,-0.9l1.4,1.8l0,1.4l0.5,-0.9l0.2,0.7l0,0.2l0,-0.1l0,0.1l0,-0.2l0.2,-0.7l0.5,0.9l0,-1.4l1.4,-1.8l0.5,0.9c0,0 0,-2.3 0.5,-2.7c0.5,-0.5 0,1.8 0,1.8s0,0 0.5,-2.3c0,-0.2 0.1,-0.5 0.1,-0.6c-0.5,-0.1 -1.5,-0.3 -1.5,-0.3s-0.4,0.9 -1.8,1.4z"/>
    </g>
    <g id="svg_80">
     <path id="svg_81" d="m-123.1,114.5c0,0 -1.4,-3.6 -5,-3.2c-3.6,0.5 -3.6,0 -3.6,0s5.4,0 8.6,3.2z"/>
     <path id="svg_82" d="m-119,114.5c0,0 1.4,-3.6 5,-3.1c3.6,0.5 3.6,0 3.6,0s-5.4,-0.1 -8.6,3.1z"/>
    </g>
    <path id="svg_83" d="m-78.6,83c0,-0.9 -1.4,-4.1 -1.4,-4.1l-1.4,0c0,0 0,-0.5 -6.4,-3.6c-6.4,-3.2 -26,3.6 -26,3.6c-1.4,0.5 -2.7,5 -2.7,5l-5.6,0.2l0,0.1l-3.9,0.1c0,0 -1.4,-4.6 -2.7,-5c0,0 -19.6,-6.8 -26,-3.6c-6.4,3.1 -6.4,3.6 -6.4,3.6l-1.4,0c0,0 -1.4,3.2 -1.4,4.1c0,0.9 -1.7,9 -1.7,9l1.7,5c0,0 1,-12.6 1.4,-13c0.5,-0.5 1.8,-0.9 2.3,1.4c0.5,2.3 1.4,3.6 1.4,3.6s3.2,13.2 7.7,15.5c4.6,2.3 6,2.3 8.2,2.3s6.4,-1.8 8.7,-3.6c2.3,-1.8 4.1,-4.1 5.5,-6.8c1.4,-2.7 2.7,-3.6 3.2,-6.4c0.5,-2.7 0,-4.1 0,-4.1l3.3,-0.3l0,0l4,-0.2c0,0 0.9,1.5 1.4,4.3c0.5,2.7 1.8,3.6 3.2,6.4c1.4,2.7 3.2,5 5.5,6.8c2.3,1.8 6.4,3.6 8.7,3.6c2.3,0 3.6,0 8.2,-2.3c4.6,-2.3 7.7,-15.5 7.7,-15.5s0.9,-1.4 1.4,-3.6s1.8,-1.8 2.3,-1.4c0.5,0.5 2.1,13.4 2.1,13.4l0.7,-7.5c0,0.1 -1.6,-6 -1.6,-7zm-50.6,12.2c-1.4,4.1 -5,6.8 -8.2,9.1c-3.2,2.3 -6.4,1.4 -11,0c-4.6,-1.4 -7.3,-8.2 -8.2,-9.6c-0.9,-1.4 -1.8,-8.7 -1.4,-11.4c0.5,-2.7 2.3,-4.6 15,-6c12.8,-1.4 15.5,9.6 15.5,9.6s-0.4,4.2 -1.7,8.3zm43.3,-0.7c-0.9,1.4 -3.6,8.2 -8.2,9.6c-4.6,1.4 -7.7,2.3 -11,0c-3.2,-2.3 -6.8,-5 -8.2,-9.1c-1.4,-4.1 -1.8,-8.2 -1.8,-8.2s2.7,-11 15.5,-9.6c12.8,1.4 14.6,3.2 15,6c0.5,2.6 -0.4,9.9 -1.3,11.3z"/>
    <g id="svg_84">
     <g id="svg_85">
      <g id="svg_86">
       <path id="svg_87" fill="#FFFFFF" d="m-130.1,86.4c-0.1,-0.1 -0.2,-0.2 -0.4,-0.2c-1.7,-2.4 -3.6,-3.5 -6.4,-3.5c-2.3,0 -6.8,0.2 -8.5,2.3c0,0 2.7,2.1 6.8,2.1s7.1,-0.5 7.1,-0.5l2,0.4l-0.6,-0.6z" class="st3"/>
      </g>
      <g id="XMLID_5_">
       <path id="svg_88" fill="url(#SVGID_5_)" d="m-135.2,84.9c0,-0.8 -0.2,-1.5 -0.7,-2.1c-0.3,0 -0.7,-0.1 -1.1,-0.1c-1.1,0 -2.8,0 -4.4,0.4c-0.3,0.5 -0.5,1 -0.5,1.6c0,0.8 0.2,1.6 0.7,2.2c0.7,0.2 1.6,0.2 2.5,0.2c0.9,0 1.7,0 2.5,-0.1c0.6,-0.5 1,-1.3 1,-2.1z" class="st14"/>
       <path id="svg_89" fill="url(#SVGID_6_)" d="m-135.7,84.8c0,-0.7 -0.2,-1.4 -0.6,-1.9c-0.2,-0.1 -0.4,-0.2 -0.5,-0.2c-1,0 -2.4,0 -3.8,0.2c-0.4,0.5 -0.7,1 -0.7,1.7c0,1 0.4,1.8 1.1,2.4c0.5,0.1 1,0.1 1.6,0.1c0.6,0 1.1,0 1.7,0c0.6,-0.5 1.1,-1.3 1.2,-2.3z" class="st15"/>
       <path d="m-136.6,84.3c0.3,1.5 -1.1,2.8 -2.6,2.4c-0.7,-0.2 -1.2,-0.8 -1.4,-1.5c-0.3,-1.5 1,-2.7 2.5,-2.3c0.9,0.1 1.4,0.7 1.5,1.4z" id="XMLID_8_"/>
       <path fill="#FFFFFF" d="m-137.5,83.7c0,0.4 -0.5,0.4 -1,0.4c-0.6,0 -1,0 -1,-0.5c0,-0.4 0.5,-0.7 1,-0.7s1,0.4 1,0.8z" class="st3" id="XMLID_7_"/>
       <path fill="#FFFFFF" d="m-138.3,86.1c0,0.1 -0.1,0.2 -0.2,0.2s-0.2,-0.1 -0.2,-0.2s0.1,-0.2 0.2,-0.2c0.1,0 0.2,0.1 0.2,0.2z" class="st3" id="XMLID_6_"/>
      </g>
      <path id="svg_90" d="m-145.3,85c1.9,-1.7 4.9,-1.8 7.3,-1.9c1.2,-0.1 2.4,-0.3 3.6,0c1.2,0.3 3.6,1.7 3.8,3.1c0,0.1 0.2,0.2 0.3,0.2s0.2,0 0.4,0c0.1,0 0.2,-0.1 0.2,-0.2c-0.2,-0.5 -0.7,-0.5 -1,-1c-0.5,-0.7 -1.1,-1.2 -1.8,-1.7c-1.2,-0.9 -2.9,-1.2 -4.4,-1.4c-2.8,0.1 -6.6,0.4 -8.4,2.9c-0.2,0 -0.1,0.1 0,0l0,0z"/>
     </g>
     <g id="svg_91">
      <g id="svg_92">
       <path id="svg_93" fill="#FFFFFF" d="m-109.4,86.3c0.1,-0.1 0.2,-0.2 0.4,-0.2c1.6,-2.4 3.4,-3.5 6,-3.5c2.1,0 6.4,0.2 8,2.3c0,0 -2.5,2.1 -6.4,2.1s-6.7,-0.5 -6.7,-0.5l-1.9,0.4l0.6,-0.6z" class="st3"/>
      </g>
      <g id="XMLID_1_">
       <path id="svg_94" fill="url(#SVGID_7_)" d="m-100.1,86.9c0.5,-0.5 0.8,-1.3 0.8,-2.1c0,-0.8 -0.2,-1.5 -0.6,-2.1c-1.2,-0.2 -2.3,-0.2 -3.1,-0.2c-0.8,0 -1.5,0.1 -2.1,0.3c-0.4,0.5 -0.6,1.1 -0.6,1.8c0,0.8 0.2,1.6 0.7,2.2c1,0.1 2.2,0.2 3.6,0.2c0.4,0 0.9,0 1.3,-0.1z" class="st16"/>
       <path id="svg_95" fill="url(#SVGID_8_)" d="m-100.6,86.7c0.5,-0.5 0.8,-1.2 0.8,-1.9c0,-0.8 -0.3,-1.6 -0.9,-2.1c-0.9,-0.1 -1.7,-0.1 -2.4,-0.1c-0.5,0 -0.9,0 -1.3,0.1c-0.5,0.5 -0.9,1.2 -0.9,2c0,0.9 0.3,1.7 1,2.2c0.9,0.1 1.9,0.1 3.1,0.1c0.1,-0.1 0.4,-0.2 0.6,-0.3z" class="st17"/>
       <path d="m-100.6,84.8c0,1.1 -1,1.9 -2,1.9c-1.1,0 -1.9,-1 -1.9,-2c0,-1.1 0.9,-1.9 2,-1.9c1.1,0 2,0.9 1.9,2z" id="XMLID_4_"/>
       <path fill="#FFFFFF" d="m-101.5,83.7c0,0.4 -0.5,0.4 -1,0.4c-0.5,0 -1,0 -1,-0.5c0,-0.4 0.5,-0.7 1,-0.7s1,0.4 1,0.8z" class="st3" id="XMLID_3_"/>
       <path fill="#FFFFFF" d="m-102.4,86.1c0,0.1 -0.1,0.2 -0.2,0.2s-0.2,-0.1 -0.2,-0.2s0.1,-0.2 0.2,-0.2c0.2,0 0.2,0.1 0.2,0.2z" class="st3" id="XMLID_2_"/>
      </g>
      <path id="svg_96" d="m-95.1,84.9c-1.8,-1.7 -4.7,-1.8 -6.8,-1.9c-1.1,-0.1 -2.2,-0.3 -3.3,0c-1.1,0.3 -3.3,1.7 -3.6,3.1c0,0.1 -0.2,0.2 -0.3,0.2s-0.2,0 -0.3,0c-0.1,0 -0.2,-0.1 -0.1,-0.2c0.2,-0.5 0.6,-0.5 0.9,-1c0.5,-0.7 1.1,-1.2 1.7,-1.7c1.2,-0.9 2.8,-1.2 4.1,-1.4c2.5,0.1 6.1,0.4 7.7,2.9c0.1,0 0.1,0 0,0l0,0z"/>
     </g>
    </g>
    <path id="svg_97" fill="#D72323" d="m-77.6,52.3l-87.6,-0.8c0,0 -4.5,13.6 -3.3,18.6c1.2,4.8 50,-13.6 50,-13.6s27.7,11.2 43.8,10.7c0,0 -0.4,-12.8 -2.9,-14.9z" class="st13"/>
   </g>
   <path fill="#D72323" d="m-116.9,55.4l56.7,-28.7c1.1,-0.5 0.5,-2.1 -0.7,-1.8c-15.9,4.1 -49.9,14.6 -56,30.5z" class="st13" id="bright_1_"/>
   <path fill="#D72323" d="m-115.5,52.6l-47.1,37.2c-5.6,2.2 -4.2,-1.9 -2.9,-3.2c17.6,-18.5 47.1,-47.5 50,-34z" class="st13" id="bleft_1_"/>
  </g>
  <g id="svg_148">
   <ellipse ry="185" rx="182.5" id="svg_147" cy="256" cx="256" fill="#111D36"/>
   <path transform="rotate(-5.75229 241.351 404.861)" stroke="null" id="svg_100" fill="#FFB1A5" d="m295.78746,395.2772c-1.56392,-15.16982 -2.88723,-27.97136 -2.88723,-27.97136s-21.89484,8.12898 -41.74456,10.04921c-19.84972,1.98424 -39.09793,-4.22451 -39.33853,-4.28852s-23.09785,-7.10485 -23.09785,-7.10485s-0.2406,2.68832 -0.84211,7.04085c-1.20301,10.94532 -3.60904,32.38789 -5.53386,48.70985c14.79706,11.13734 37.17311,19.9704 70.97778,21.69861c1.20301,0.06401 2.40603,0.12802 3.60904,0.19202c8.06019,0.25603 15.15797,0.19202 21.29333,-0.12802c9.1429,-0.44805 16.48128,-1.40817 22.13544,-2.88035c-0.60151,-7.61692 -2.88723,-27.97136 -4.57145,-45.31745z" class="st0"/>
   <path id="svg_101" fill="#111D36" d="m187.11761,365.37161c0,0 21.7,51.2 54.1,47.5c33.8,-4 39.3,-46 39.3,-46l-93.4,-1.5z" class="st1"/>
   <path id="svg_102" fill="#F9A9A3" d="m367.01761,218.17161c-7.3,1.2 -6.1,9.7 -7.3,12.2l-4.8,8.5l0,-14.5l4.8,-12.2c0,0 -1.2,-43.7 -6.1,-63.1c-4.8,-19.5 -29.2,-57 -65.6,-65.6c-33.9,-7.9 -44,-8.7 -45.4,-8.8l0,0l-0.1,0c-0.1,0 -0.1,0 -0.1,0l0,0c-1.3,0.1 -11.6,1 -45.4,8.8c-36.4,8.5 -60.7,46.1 -65.6,65.6c-5,19.5 -6.1,63.1 -6.1,63.1l4.8,12.2l0,14.5l-4.8,-8.5c-1.2,-2.4 0,-10.9 -7.3,-12.2c-13.3,-2.3 -12.1,37.7 -12.1,37.7l8.5,17c0,0 3.6,3.6 9.7,19.5s9.7,14.5 13.3,13.3c3.7,-1.2 3.7,4.8 3.7,4.8s0,3.6 6.1,20.6s20.6,26.8 49.8,42.5c28.4,15.4 44.6,15 45.5,15c0.9,0.1 17.1,0.4 45.5,-15c29.2,-15.9 43.7,-25.5 49.8,-42.5s6.1,-20.6 6.1,-20.6s0,-6.1 3.6,-4.8c3.6,1.2 7.3,2.4 13.3,-13.3c6.1,-15.9 9.7,-19.5 9.7,-19.5l8.5,-17c0.1,-0.1 1.3,-39.9 -12,-37.7z" class="st2"/>
   <path id="svg_103" fill="#FFFFFF" d="m202.51761,305.77161l78.1,0c0,0 -6.4,15.2 -39.1,15.2c-27.5,0 -39,-15.2 -39,-15.2z" class="st3"/>
   <path id="svg_104" fill="#9B2121" d="m263.11761,299.97161c-12,-4.1 -18.2,-1.4 -20,-0.4c-1.8,-1 -7.9,-3.6 -20,0.4c-14.5,4.8 -29.2,8.5 -29.2,8.5l48.6,0l1.2,0l45.6,0l3,0c-0.1,0.1 -14.6,-3.5 -29.2,-8.5z" class="st4"/>
   <path id="svg_105" fill="#9B2121" d="m265.71761,318.17161c-14.5,4.8 -23.1,3.2 -23.1,3.2s-8.5,1.8 -23.1,-3.2c-14.5,-4.8 -25.8,-10.1 -25.8,-10.1s3.4,4.5 4.3,5.4c1.9,1.9 -0.1,1 10.5,8.4c15.9,10.9 24.2,13.3 32.8,13.3c0.4,0 0.9,0 1.2,0c0.4,0 0.9,0 1.2,0c8.5,0 17,-2.4 32.8,-13.3c7.9,-5.4 4.7,-4.2 7.4,-6.4c2.5,-2.3 5.4,-7.6 5.4,-7.6s-9.1,5.4 -23.6,10.3z" class="st4"/>
   <g id="svg_106">
    <path id="svg_107" d="m237.21761,293.47161c0.2,0 -0.1,-0.1 -0.6,-0.3c0.2,0.2 0.3,0.3 0.6,0.3z"/>
    <path id="svg_108" d="m223.81761,284.97161c0,0 -10.9,2.4 -13.3,1.2s-3.6,4.8 -4.8,4.8c-1.2,0 1.2,-3.6 1.2,-3.6s-2.4,2.4 -3.6,3.6c-1,1 -9.8,9.8 -12.2,12.2c3.6,-3.6 17,-8.5 26.8,-10.9c7.9,-2 16.6,0.1 18.9,0.9c-0.7,-0.7 -1.5,-2.1 -2.1,-3.3c1.4,1.2 3.9,2.4 3.9,2.4s-1,-2.6 -1.8,-4.7c1.5,2.5 4.2,3.5 4.2,3.5c4.6,-8.5 -17.2,-6.1 -17.2,-6.1z"/>
    <path id="svg_109" d="m282.01761,291.07161c-1.2,-1.2 -3.6,-3.6 -3.6,-3.6s2.4,3.6 1.2,3.6c-1.2,0 -2.4,-6.1 -4.8,-4.8c-2.4,1.2 -13.3,-1.2 -13.3,-1.2s-21.9,-2.4 -17,6.1c0,0 2.6,-0.9 4.2,-3.5c-0.8,2 -1.8,4.6 -1.8,4.6s2.4,-1.2 3.9,-2.4c-0.7,1.1 -1.4,2.6 -2.1,3.3c2.2,-0.9 10.9,-2.9 18.9,-0.9c9.7,2.4 23.1,7.3 26.8,10.9c3.3,3.6 -11.3,-10.9 -12.4,-12.1z"/>
    <path id="svg_110" d="m248.01761,293.47161c0.2,0 0.3,-0.1 0.6,-0.3c-0.6,0.2 -0.9,0.3 -0.6,0.3z"/>
   </g>
   <g id="svg_111">
    <g id="svg_112">
     <path id="svg_113" fill="#0F100D" d="m344.31761,94.37161c-8.3,-7.4 -27.7,-20.4 -48.8,-28.1c-14.3,-5.3 -29.5,-7.9 -43.1,-8.9c-1,-0.2 -2,-0.3 -3.1,-0.3c-2.5,-0.1 -5.2,-0.2 -8,-0.1c-2.8,0 -5.5,0 -8,0.1c-1.1,0.1 -2.1,0.2 -3.2,0.3c-13.4,1 -28.7,3.6 -43.1,8.9c-21,7.7 -40.4,20.7 -48.8,28.1c-21.6,19.6 -23.9,65.4 -20.3,89.1c3.4,21.9 6.7,51.4 7.2,55.7l5.2,-0.3c4,-5.2 -0.1,-8.6 0,-14.5c0.8,-53 9.4,-47 7.2,-64.4c-2.4,-19.4 18.4,-49.9 18.4,-49.9s36,-11.2 53.4,-7.7c23.5,4.8 32.2,6.5 32.2,6.5s0,0 0.1,-0.1c0,0.1 0.1,0.1 0.1,0.1s8.7,-1.7 32.2,-6.5c17.4,-3.6 53.4,7.6 53.4,7.6s20.8,30.5 18.4,49.9c-2.2,17.3 20.5,25.5 8.4,66.8c-5,16.7 4,11.3 3.6,19.5l0.3,-6.9c0.4,-4.2 3.9,-33.8 7.2,-55.7c3.3,-23.8 1.1,-69.6 -20.9,-89.2z" class="st5"/>
    </g>
    <path id="svg_114" fill="#302C2B" d="m180.01761,103.97161c-3.6,2.4 -12,1.8 -24.2,6.1c-16,5.5 -34.5,10.5 -29.2,-15.9c4.3,-27.9 62.4,-62.1 68.4,-65.5c5.9,-3.4 30.2,-5.9 34.9,-3.6c10.9,6.1 13.3,7.3 13.3,7.3s8.7,-0.6 13.3,0c9.4,-3 20.4,-7.6 21.9,-2.4s13.8,3.2 16,4.4c2.1,1.3 11.8,5.7 12.2,8.7c0.3,2.9 12.2,6.2 15.5,11.2c3.3,5.1 11.6,17.2 8.3,21.6c-4,5.2 25.1,35.6 24.7,34.2c-5.4,-14.4 -107.8,-8.4 -116.6,-6.6c-26.7,5.5 -58.5,0.5 -58.5,0.5z" class="st6"/>
    <path id="svg_115" fill="#0F100D" d="m298.11761,56.27161c0.1,-0.3 0.1,-0.6 0.1,-0.8c0,-0.6 -0.1,-0.3 -0.1,0.8z" class="st5"/>
    <path id="svg_116" fill="#0F100D" d="m339.21761,78.47161c-2.5,-1 -9.4,-9.4 -11.2,-13.4l0,0c0.4,6.9 -7.9,12.7 -7.2,6.7c0.8,-5.9 -2.5,-14 -2.5,-14c-4,24.1 -25.5,20.6 -23,14c1.9,-4.8 2.5,-12.7 2.8,-15.5c-1,4.1 -8.3,18.9 -15,23c-7.2,4.5 -15.9,8.7 -9.4,-6.2c6.5,-14.8 11.1,-29.3 11.1,-29.3c-6.8,17.4 -20.1,38.9 -31.6,45.4c-11.5,6.5 -5.4,-8 -5.4,-8c-9.4,4.5 -6.2,14.4 -24.1,19.6c-17.9,5.2 0,-18.5 0,-18.5c-15.1,15.4 -36.7,11.6 -36.7,11.6c-1.6,-29.3 33.5,-52 33.5,-52c-9.1,5.4 -23.8,12.1 -40,33.4s-36.8,-4.3 -36.8,-4.3l0,0c3.3,32.9 39.4,27.1 39.4,27.1s28.1,7 55.2,5.5c9.8,-0.6 121.1,14.2 116.7,4.2c-0.1,-0.5 17,-15.9 -15.8,-29.3z" class="st5"/>
    <path id="svg_117" fill="#515151" d="m207.91761,69.97161c0,0 25.7,-31.1 42.8,-38.3c-3.4,5.1 -6.8,9.7 -8.3,14.2c3.9,-2.2 19.3,-8.3 28.1,-18.9c-4.5,12.7 -15.9,22.2 -16.8,28.7c2,-3.7 14.6,-11.2 20.1,-17.2c-7.6,14.1 -37.8,40.2 -37.8,40.2s12.1,-10 11.9,-18.7c-4.4,5.5 -11.6,12.9 -25.9,18.7c14.3,-14.3 12.7,-23.8 12.7,-23.8s-15.3,10 -26.8,15.1z" class="st7"/>
    <path id="svg_118" fill="#515151" d="m289.61761,40.87161c0,0 -1.7,11.2 -3.5,16.4c-1.9,5.2 2.3,0.4 3.5,-1.4c1.2,-1.9 1.7,0.7 1.2,1.3c-0.4,0.8 1.2,0.9 2.1,-1.9c1,-2.6 2.4,0 2.4,0s2.5,-1.3 3.3,-3.5c0.7,-2.2 2,6.2 1.4,7.8c-0.6,1.8 2.9,-3.3 2.9,-3.3s1.2,5.4 0,10.8c-1.2,5.4 7.2,3.4 8,-7.3c1,-10.7 -1.4,-12.3 -2.9,-12.4c-1.3,-0.1 -1.9,3.7 -1.9,3.7s-1.1,-6.4 -4,-7.5c-2.9,-1.1 -5.4,1.2 -5.3,1.9c0.5,0.7 -7.2,-14.2 -7.2,-4.6z" class="st7"/>
    <path id="svg_119" fill="#515151" d="m155.11761,54.47161c0,0 3.1,-12.4 24.4,-18.4c21.5,-5.8 22.6,-4.7 32.5,-9.7c9.9,-5 -12.2,10.4 -17.7,11.5c-5.5,1.1 11.9,-1.4 20.3,-2.9c8.4,-1.4 -14.8,8.3 -27.2,19.6c-12.9,11.7 -10.8,15 -15.6,20.7c-1.5,-7.6 -0.7,-15.4 0.7,-18.1c1.2,-2.8 -5.5,-0.2 -10.2,5.6c-4.7,5.7 1.4,-6.2 1.4,-8c-0.1,-2.1 -8.8,3.8 -8.6,-0.3z" class="st7"/>
    <path id="svg_120" fill="#4A4A48" d="m172.41761,57.07161c1.2,-2.8 -5.5,-0.2 -10.2,5.6c-4.7,5.7 -1.1,-5 1.4,-8" class="st8"/>
   </g>
   <g id="svg_121">
    <path id="svg_122" d="m232.61761,341.77161c0.2,-0.1 0.3,-0.1 0.6,-0.2c-0.6,-2.8 0,-0.5 -0.6,0.2z"/>
    <path id="svg_123" d="m232.31761,342.07161c0.2,0 0.3,-0.1 0.3,-0.2c-0.4,0.1 -0.6,0.2 -0.3,0.2z"/>
    <path id="svg_124" d="m238.41761,340.87161c0.6,0.6 1.3,1.2 2.1,1.9c-1.1,-1.3 -2.8,-2.6 -2.1,-1.9z"/>
    <path id="svg_125" d="m252.51761,341.77161c0.1,0.1 0.2,0.2 0.3,0.2c0.3,0.1 0.1,0 -0.3,-0.2z"/>
    <path id="svg_126" d="m251.91761,341.67161c0.2,0.1 0.4,0.1 0.6,0.2c-0.6,-0.8 0,-3.1 -0.6,-0.2z"/>
    <path id="svg_127" d="m244.51761,342.67161c0.8,-0.7 1.7,-1.3 2.2,-1.9c0.7,-0.6 -1,0.7 -2.2,1.9z"/>
    <path id="svg_128" d="m244.31761,344.47161c-1.8,0.7 -1,-0.6 0.3,-1.8c-1,0.8 -1.9,1.4 -2,1.5c-0.1,-0.1 -1,-0.8 -2,-1.5c1.2,1.2 2.1,2.4 0.3,1.8c-3.6,-1.2 -3.6,-3.6 -3.6,-3.6s-2.4,0.6 -4,0.9c0.1,0.4 0.2,0.9 0.3,1.5c1.2,6.1 1.2,6.1 1.2,6.1s-1.2,-6.1 0,-4.8c1.2,1.2 1.2,7.3 1.2,7.3l1.2,-2.4l3.6,4.8l0,3.6l1.2,-2.4l0.4,1.8l0,0.7l0.1,-0.3l0.1,0.3l0,-0.7l0.4,-1.8l1.2,2.4l0,-3.6l3.6,-4.8l1.2,2.4c0,0 0,-6.1 1.2,-7.3c1.2,-1.2 0,4.8 0,4.8s0,0 1.2,-6.1c0.1,-0.7 0.2,-1.2 0.3,-1.5c-1.4,-0.3 -4,-0.9 -4,-0.9s0.3,2.4 -3.4,3.6z"/>
   </g>
   <g id="svg_129">
    <path id="svg_130" d="m237.21761,281.37161c0,0 -3.6,-9.7 -13.3,-8.5c-9.7,1.2 -9.7,0 -9.7,0s14.5,-0.1 23,8.5z"/>
    <path id="svg_131" d="m248.01761,281.37161c0,0 3.6,-9.6 13.3,-8.4c9.7,1.2 9.7,0 9.7,0s-14.6,-0.1 -23,8.4z"/>
   </g>
   <path id="svg_132" d="m355.51761,197.57161c0,-2.4 -3.6,-10.9 -3.6,-10.9l-3.6,0c0,0 0,-1.2 -17,-9.7c-17,-8.5 -69.3,9.7 -69.3,9.7c-3.6,1.2 -7.3,13.3 -7.3,13.3l-15,0.7l0,0.2l-10.5,0.2c0,0 -3.6,-12.2 -7.3,-13.3c0,0 -52.2,-18.2 -69.3,-9.7c-17.1,8.4 -17.1,9.5 -17.1,9.5l-3.6,0c0,0 -3.6,8.5 -3.6,10.9c0,2.4 -4.5,23.9 -4.5,23.9l4.4,13.2c0,0 2.6,-33.5 3.9,-34.7s4.8,-2.4 6.1,3.6s3.6,9.7 3.6,9.7s8.5,35.2 20.6,41.3c12.2,6.1 15.9,6.1 21.9,6.1s17,-4.8 23.1,-9.7c6.1,-4.8 10.9,-10.9 14.5,-18.2c3.6,-7.3 7.3,-9.7 8.5,-17c1.2,-7.3 0,-10.9 0,-10.9l8.8,-0.9l0,0.1l10.6,-0.7c0,0 2.3,4.1 3.6,11.3c1.2,7.3 4.8,9.7 8.5,17c3.6,7.3 8.5,13.3 14.5,18.2c6.1,4.8 17,9.7 23.1,9.7c6.1,0 9.7,0 21.9,-6.1s20.6,-41.3 20.6,-41.3s2.4,-3.6 3.6,-9.7c1.2,-6.1 4.8,-4.8 6.1,-3.6c1.2,1.2 5.6,35.8 5.6,35.8l2.4,-19.5c0.2,0.3 -4.2,-16.1 -4.2,-18.5zm-134.7,32.5c-3.6,10.9 -13.3,18.2 -21.9,24.2c-8.5,6.1 -17,3.6 -29.2,0c-12.2,-3.6 -19.5,-21.9 -21.9,-25.5c-2.4,-3.6 -4.8,-23.1 -3.6,-30.4s6.1,-12.2 40.1,-15.9s41.3,25.5 41.3,25.5s-1.2,11.2 -4.8,22.1zm115.3,-2.1c-2.4,3.6 -9.7,21.9 -21.9,25.5c-12.2,3.6 -20.6,6.1 -29.2,0c-8.5,-6.1 -18.2,-13.3 -21.9,-24.2c-3.6,-10.9 -4.8,-21.9 -4.8,-21.9s7.3,-29.2 41.3,-25.5c34,3.6 38.9,8.5 40.1,15.9c1.3,7.1 -1.1,26.6 -3.6,30.2z"/>
   <g id="svg_133">
    <g id="svg_134">
     <g id="svg_135">
      <path id="svg_136" fill="#FFFFFF" d="m218.31761,206.47161c-0.3,-0.3 -0.6,-0.6 -1,-0.6c-4.6,-6.5 -9.7,-9.2 -17.1,-9.2c-6.2,0 -18.1,0.6 -22.6,6.2c0,0 7.2,5.6 18.1,5.6s19,-1.4 19,-1.4l5.3,1.1l-1.7,-1.7z" class="st3"/>
     </g>
     <g id="XMLID_21_">
      <path id="svg_137" fill="url(#SVGID_9_)" d="m204.91761,202.37161c0.1,-2.1 -0.6,-4 -1.8,-5.5c-0.9,-0.1 -1.9,-0.2 -2.9,-0.2c-3,0 -7.5,0.1 -11.8,1c-0.8,1.2 -1.2,2.6 -1.3,4.2c-0.1,2.2 0.7,4.3 2,5.8c2,0.4 4.2,0.7 6.6,0.7c2.3,0 4.5,-0.1 6.6,-0.2c1.5,-1.5 2.5,-3.4 2.6,-5.8z" class="st18"/>
      <path id="svg_138" fill="url(#SVGID_10_)" d="m203.51761,202.27161c0.1,-1.9 -0.6,-3.6 -1.7,-5c-0.4,-0.2 -1,-0.4 -1.4,-0.7c-2.6,0 -6.4,0.1 -10,0.7c-1.1,1.2 -1.8,2.8 -1.8,4.5c-0.1,2.5 1.1,4.8 3,6.3c1.3,0.2 2.8,0.3 4.2,0.3c1.5,0 3,0 4.4,-0.1c1.8,-1.2 3.2,-3.4 3.3,-6z" class="st19"/>
      <path d="m201.21761,200.87161c0.8,4 -2.9,7.4 -6.8,6.3c-1.8,-0.6 -3.3,-2.1 -3.6,-4c-0.8,-4 2.8,-7.3 6.7,-6.2c1.9,0.5 3.3,2.1 3.7,3.9z" id="XMLID_24_"/>
      <path fill="#FFFFFF" d="m198.81761,199.37161c-0.1,1.1 -1.2,1.1 -2.8,1.1c-1.5,-0.1 -2.6,-0.1 -2.6,-1.2c0.1,-1.1 1.3,-2 2.8,-2c1.4,0 2.6,1 2.6,2.1z" class="st3" id="XMLID_23_"/>
      <path fill="#FFFFFF" d="m196.51761,205.77161c0,0.3 -0.3,0.7 -0.7,0.7s-0.7,-0.3 -0.7,-0.7c0,-0.3 0.3,-0.7 0.7,-0.7c0.4,0 0.7,0.3 0.7,0.7z" class="st3" id="XMLID_22_"/>
     </g>
     <path id="svg_139" d="m177.81761,202.87161c5.1,-4.5 13.1,-4.8 19.4,-5.2c3.2,-0.2 6.4,-0.8 9.5,0c3.2,0.8 9.5,4.4 10,8.4c0.1,0.3 0.4,0.7 0.8,0.7s0.7,0 1,0.1c0.2,0.1 0.4,-0.2 0.4,-0.4c-0.6,-1.4 -1.8,-1.3 -2.5,-2.5c-1.3,-1.8 -3,-3.2 -4.7,-4.4c-3.3,-2.3 -7.8,-3.3 -11.7,-3.6c-7.2,-0.6 -17.2,0.3 -22,6.9c-0.5,0 -0.4,0.1 -0.2,0l0,0z"/>
    </g>
    <g id="svg_140">
     <g id="svg_141">
      <path id="svg_142" fill="#FFFFFF" d="m273.51761,206.17161c0.2,-0.3 0.6,-0.6 1,-0.6c4.3,-6.5 9,-9.2 16.1,-9.2c5.7,0 17,0.6 21.4,6.2c0,0 -6.7,5.6 -17.1,5.6s-17.9,-1.4 -17.9,-1.4l-5.1,1.1l1.6,-1.7z" class="st3"/>
     </g>
     <g id="XMLID_9_">
      <path id="svg_143" fill="url(#SVGID_11_)" d="m298.31761,207.97161c1.2,-1.4 2.1,-3.4 2.1,-5.5c0.1,-2.1 -0.6,-4 -1.7,-5.5c-3.1,-0.4 -6.1,-0.6 -8.3,-0.6c-2.1,0 -4,0.3 -5.6,0.8c-1,1.3 -1.5,3 -1.5,4.7c-0.1,2.2 0.7,4.3 1.9,5.8c2.8,0.2 5.9,0.4 9.7,0.4c1.2,0.1 2.3,0 3.4,-0.1z" class="st20"/>
      <path id="svg_144" fill="url(#SVGID_12_)" d="m297.01761,207.37161c1.3,-1.3 2.2,-3.2 2.2,-5.2c0.1,-2.2 -0.9,-4.3 -2.3,-5.7c-2.3,-0.2 -4.6,-0.3 -6.4,-0.3c-1.2,0 -2.4,0.1 -3.5,0.3c-1.4,1.3 -2.3,3.2 -2.4,5.3c-0.1,2.3 0.9,4.5 2.5,5.9c2.4,0.2 5.2,0.3 8.1,0.3c0.5,0 1.3,-0.3 1.8,-0.6z" class="st21"/>
      <path d="m297.11761,202.27161c-0.1,2.9 -2.5,5.2 -5.3,5.2c-2.9,-0.1 -5.1,-2.5 -5,-5.4c0.1,-2.9 2.4,-5.2 5.3,-5.1c2.9,-0.1 5.1,2.4 5,5.3z" id="XMLID_12_"/>
      <path fill="#FFFFFF" d="m294.61761,199.37161c-0.1,1.1 -1.2,1.1 -2.6,1.1c-1.4,-0.1 -2.5,-0.1 -2.5,-1.2c0.1,-1.1 1.2,-2 2.6,-2s2.5,1 2.5,2.1z" class="st3" id="XMLID_11_"/>
      <path fill="#FFFFFF" d="m292.31761,205.77161c0,0.3 -0.3,0.7 -0.7,0.7c-0.3,0 -0.7,-0.3 -0.7,-0.7c0,-0.3 0.3,-0.7 0.7,-0.7c0.5,0 0.7,0.3 0.7,0.7z" class="st3" id="XMLID_10_"/>
     </g>
     <path id="svg_145" d="m311.81761,202.57161c-4.7,-4.5 -12.4,-4.8 -18.2,-5.2c-3,-0.2 -5.9,-0.8 -8.9,0c-3,0.8 -8.8,4.4 -9.5,8.4c-0.1,0.3 -0.4,0.7 -0.8,0.7c-0.3,0 -0.6,0 -0.9,0.1c-0.2,0.1 -0.4,-0.2 -0.3,-0.4c0.4,-1.4 1.7,-1.3 2.4,-2.5c1.2,-1.8 2.9,-3.2 4.5,-4.4c3.2,-2.3 7.4,-3.3 11,-3.6c6.7,-0.6 16.2,0.3 20.7,6.9c0.2,0 0.1,0.1 0,0l0,0z"/>
    </g>
   </g>
   <path id="svg_146" fill="#D72323" d="m358.41761,115.67161l-233.4,-2.2c0,0 -12.1,36.3 -8.8,49.5c3.2,12.8 133.2,-36.3 133.2,-36.3s73.8,29.7 116.7,28.6c0,0 -1.1,-34.1 -7.7,-39.6z" class="st13"/>
   <path fill="#D72323" d="m253.61761,123.87161l151,-76.4c2.9,-1.4 1.2,-5.7 -1.9,-4.8c-42.2,10.9 -132.9,38.8 -149.1,81.2z" class="st13" id="bright_2_"/>
   <path fill="#D72323" d="m257.21761,116.57161l-125.5,99.1c-15,5.9 -11.1,-5.1 -7.8,-8.5c47,-49.3 125.6,-126.6 133.3,-90.6z" class="st13" id="bleft_2_"/>
  </g>
 </g>
</svg>